# xmcd
#
# Track frame offsets:
#	150
#	14960
#	29487
#	44052
#	58217
#	72279
#	85053
#	99346
#	112568
#	126116
#	139714
#	153701
#	167510
#	180774
#	194483
#	206692
#	219564
#	233733
#	247911
#	262711
#
# Disc length: 3676 seconds
#
# Revision: 7
# Processed by: cddbd v1.5.2PL0 Copyright (c) Steve Scherf et al.
# Submitted via: EZCDAudioConverter 3.1.0.1
#
DISCID=130e5a14
DTITLE=Charley Patton - The Definitive Charley Patton [1929-1930]_cd2
DYEAR=1930
DGENRE=Blues
TTITLE0=Some These Days I'll Be Gone
TTITLE1=Green River Blues
TTITLE2=Hammer Blues
TTITLE3=Magnolia Blues
TTITLE4=When Your Way Gets Dark
TTITLE5=Heart Like Railroad Steel
TTITLE6=Some Happy Day
TTITLE7=You're Gonna Need Somebody When You Die
TTITLE8=Jim Lee Blues Part One
TTITLE9=Jim Lee Blues Part Two
TTITLE10=High Water Everywhere Part One
TTITLE11=High Water Everywhere Part Two
TTITLE12=Jesue Is A Dying-Bed Maker
TTITLE13=I Shall Not Be Moved
TTITLE14=Rattlesnake Blues
TTITLE15=Running Wild Blues
TTITLE16=Joe Kirby
TTITLE17=Mean Black Moan
TTITLE18=Dry Well Blues
TTITLE19=Some Summer Day Part One
EXTD=
EXTT0=
EXTT1=
EXTT2=
EXTT3=
EXTT4=
EXTT5=
EXTT6=
EXTT7=
EXTT8=
EXTT9=
EXTT10=
EXTT11=
EXTT12=
EXTT13=
EXTT14=
EXTT15=
EXTT16=
EXTT17=
EXTT18=
EXTT19=
PLAYORDER=
